# xmcd
#
# Track frame offsets: 
#        150
#        18556
#        36027
#        48589
#        64914
#        81251
#        98730
#        113953
#        129408
#        147408
#        161695
#        173298
#        192942
#        211968
#        226881
#        240856
#        254584
#        266512
#        282564
#        299952
#
# Disc length: 4168 seconds
#
# Revision: 0
# Processed by: cddbd v1.5.2PL0 Copyright (c) Steve Scherf et al.
# Submitted via: ExactAudioCopyFreeDBPlugin 1.0
#
DISCID=29104614
DTITLE=Camilo Sesto - 20 Exitos
DYEAR=1995
DGENRE=Pop
TTITLE0=Algo de mí
TTITLE1=Ayudadme
TTITLE2=Melina
TTITLE3=Vivir así es morir de amor
TTITLE4=¿Quieres ser mi amante?
TTITLE5=Perdóname
TTITLE6=Piel de Ángel
TTITLE7=¿Que mas te da?
TTITLE8=Amor... Amar
TTITLE9=Algo más
TTITLE10=Fresa salvaje
TTITLE11=Si me dejas ahora
TTITLE12=Celos
TTITLE13=Jamás
TTITLE14=Amor de mujer
TTITLE15=Con el viento a tu favor
TTITLE16=Miénteme
TTITLE17=Enamórate de mí
TTITLE18=Vivir sin ti
TTITLE19=Devuélveme mi libertad
EXTD=
EXTT0=
EXTT1=
EXTT2=
EXTT3=
EXTT4=
EXTT5=
EXTT6=
EXTT7=
EXTT8=
EXTT9=
EXTT10=
EXTT11=
EXTT12=
EXTT13=
EXTT14=
EXTT15=
EXTT16=
EXTT17=
EXTT18=
EXTT19=
PLAYORDER=
